<svg width="202" height="267" viewBox="0 0 202 267" fill="none" xmlns="http://www.w3.org/2000/svg">
<path d="M199.598 133.5C199.598 170.07 188.432 203.121 170.449 226.996C152.468 250.871 127.739 265.5 100.549 265.5C73.3583 265.5 48.6298 250.871 30.6483 226.996C12.6662 203.121 1.5 170.07 1.5 133.5C1.5 96.9296 12.6662 63.8787 30.6483 40.0037C48.6298 16.1294 73.3583 1.5 100.549 1.5C127.739 1.5 152.468 16.1294 170.449 40.0037C188.432 63.8787 199.598 96.9296 199.598 133.5Z" fill="#BFAB25" stroke="#706838" stroke-width="3"/>
<path d="M90.9675 19.1521C79.927 19.8419 70.4093 23.1132 61.0527 29.3997C53.9364 34.2081 47.9183 40.0216 41.9441 47.9043C35.1792 56.8117 30.3618 65.7389 26.3204 76.8732C21.2248 90.9044 18.428 105.704 17.447 123.775C17.2273 127.835 17.2273 139.777 17.447 143.975C18.3988 161.967 21.2394 177.023 26.379 191.192C31.6796 205.775 38.4299 217.264 47.3326 226.842C50.8907 230.665 54.2878 233.719 58.7538 237.069C67.6272 243.711 77.6867 247.337 90.294 248.44C93.7204 248.736 102.418 248.559 105.391 248.125C109.52 247.534 112.507 246.844 116.036 245.662C137.765 238.37 156.643 226.842 160.857 185.852C161.765 182.127 162.555 178.284 162.438 178.186C162.277 178.067 148.894 172.688 148.689 172.668C148.586 172.648 148.103 174.067 147.503 176.235C143.93 188.946 137.59 197.828 132.758 206.046C130.971 209.101 127.516 213.012 125.524 215.062C121.468 219.22 117.467 219.373 113.074 220.89C103.234 224.3 94.1304 222.674 84.6895 218.151C78.73 212.928 60.8001 206.046 53.7753 189.699C49.4265 177.205 45.8463 169.653 45.2606 143.975C44.6456 117.095 48.7712 100.039 52.7833 83.3469C60.7781 62.6549 80.0332 50.7026 93.1969 47.9043C95.5544 47.4116 102.989 47.3919 105.391 47.9043C114.82 49.8947 124.353 49.5006 131.191 61.0093C135.789 68.7343 140.006 79.4351 143.417 92.0277C144.355 95.4764 146.082 102.709 146.478 104.837C146.683 105.921 145.804 105.842 153.462 105.448L159.07 105.172L159.422 104.62C159.773 104.088 159.788 103.99 159.715 102.098C159.671 101.014 159.378 91.87 159.056 81.7999C158.734 71.7101 156.017 62.034 155.973 61.0093C155.943 59.9845 156.965 78.1837 156.643 67.68C155.465 57.6296 156.643 64.2577 154.092 54.2302L152.525 50.8308L150.164 47.9043L148.436 44.9926L141.818 37.5287C140.218 37.0114 145.681 57.0334 147.29 43.5146C146.807 47.5742 146.32 44.495 141.818 37.5287C134.654 32.5035 135.598 32.4936 125.758 27.3304C115.143 21.7929 105.962 20.3937 98.9039 19.428C97.2199 19.2113 92.6514 19.0536 90.9675 19.1521Z" fill="#0B0B45"/>
<path d="M143.238 112.315C143.167 112.508 142.287 115.721 141.915 116.719C141.296 118.352 139.605 122.819 137.377 131.8C137.975 129.395 137.765 130.262 137.377 131.8C136.91 133.972 137.597 130.925 136.861 134.205C135.858 137.614 136.735 135.496 132.656 151.133C129.086 169.011 129.983 170.385 126.889 151.501C125.765 146.644 119.311 116.132 119.056 115.038C118.959 114.603 118.861 114.233 118.848 114.217C118.835 114.201 118.359 114.257 117.785 114.346C116.801 114.491 112.94 115.279 107.711 116.051C106.388 116.244 101.956 116.695 101.806 116.719L105.975 116.265V116.719C105.975 117.451 105.62 115.802 108.567 126.412C110.079 131.858 110.865 134.193 112.234 139.132C113.433 143.444 113.886 144.623 114.76 147.76C115.634 150.897 115.973 151.684 117.172 155.995C118.372 160.307 119.086 161.848 119.959 164.985C120.833 168.122 121.058 168.758 122.257 173.069C122.942 175.547 123.418 176.921 123.633 177.685C125.524 184.49 127.978 194.616 128.369 196.056C128.584 196.828 127.761 193.696 127.807 193.841C129.358 189.722 131.789 183.286 132.656 180.993C133.021 180.02 134.116 175.636 135.59 171.742C136.812 166.946 138.572 162.391 139.397 158.891C140.451 154.419 144.107 137.475 144.14 137.443C144.166 137.403 149.326 153.152 150.03 155.09C151.347 158.702 152.501 161.976 155.05 168.967C155.852 171.155 156.448 172.721 156.761 173.582C157.074 174.443 157.897 177.021 158.693 179.193C162.187 188.782 161.183 185.699 162.213 188.514L162.727 190.656L162.849 191.048L163.313 191.772L163.949 193.841C165.937 186.826 169.399 173.061 170.11 170.576C170.357 169.715 171.29 166.417 172.183 163.255C175.358 152.066 178.813 143.609 179.256 142.057C179.504 141.196 180.921 137.391 181.82 134.205C182.72 131.02 184.485 128.182 184.485 126.412C186.884 117.99 187.248 117.918 185.756 116.99L186.612 117.451C186.475 117.427 181.434 116.228 177.705 115.673C178.422 115.786 173.976 115.118 177.705 115.673C176.988 115.569 173.85 114.744 175.733 115.038L173.948 122.782C172.142 130.215 168.043 146.334 167.665 147.911C167.515 148.53 163.924 166.433 162.849 166.433C162.176 166.433 157.824 150.038 156.761 147.187C154.519 141.17 151.301 131.303 149.104 125.407C148.061 122.615 147.293 118.408 146.413 116.051L145.616 112.315H144.458L143.214 112.254L143.238 112.315Z" fill="#0B0B45"/>
</svg>
