<svg width="362" height="162" viewBox="0 0 362 162" fill="none" xmlns="http://www.w3.org/2000/svg">
<path d="M215.908 108.261C215.908 119.748 212.399 130.09 206.798 137.527C201.197 144.964 193.572 149.426 185.274 149.426C176.976 149.426 169.351 144.964 163.75 137.527C158.148 130.09 154.64 119.748 154.64 108.261C154.64 96.7741 158.148 86.4319 163.75 78.9948C169.351 71.5584 176.976 67.0961 185.274 67.0961C193.572 67.0961 201.197 71.5584 206.798 78.9948C212.399 86.4319 215.908 96.7741 215.908 108.261Z" fill="#BFAB25" stroke="#706838" stroke-width="3"/>
<path d="M182.212 71.7169C178.684 71.9373 175.642 72.9828 172.652 74.9918C170.377 76.5286 168.454 78.3865 166.545 80.9057C164.383 83.7524 162.843 86.6055 161.552 90.1638C159.923 94.648 159.029 99.3779 158.716 105.153C158.646 106.451 158.646 110.267 158.716 111.609C159.02 117.359 159.928 122.171 161.57 126.699C163.264 131.359 165.422 135.031 168.267 138.092C169.404 139.314 170.49 140.29 171.917 141.361C174.753 143.483 177.968 144.642 181.997 144.995C183.092 145.089 185.871 145.032 186.821 144.894C188.141 144.705 189.096 144.485 190.224 144.107C197.168 141.776 203.201 138.092 204.548 124.992C204.838 123.802 205.091 122.574 205.053 122.542C205.002 122.504 200.725 120.785 200.659 120.779C200.626 120.772 200.472 121.226 200.28 121.919C199.138 125.981 197.112 128.82 195.568 131.446C194.997 132.422 193.892 133.672 193.256 134.327C191.96 135.656 190.681 135.705 189.277 136.19C186.132 137.28 183.223 136.76 180.206 135.314C178.301 133.645 172.571 131.446 170.326 126.222C168.936 122.229 167.792 119.815 167.605 111.609C167.408 103.018 168.727 97.5672 170.009 92.2327C172.564 85.6198 178.718 81.8 182.925 80.9057C183.678 80.7483 186.054 80.742 186.821 80.9057C189.835 81.5418 192.882 81.4159 195.067 85.0939C196.536 87.5627 197.884 90.9826 198.974 95.007C199.274 96.1092 199.826 98.4206 199.952 99.1008C200.018 99.4472 199.737 99.422 202.185 99.296L203.977 99.2078L204.089 99.0315C204.202 98.8614 204.206 98.83 204.183 98.2253C204.169 97.879 204.075 94.9566 203.972 91.7384C203.869 88.5138 203.001 85.4214 202.987 85.0939C202.978 84.7664 203.304 90.5827 203.201 87.2258C202.825 84.0138 203.201 86.1321 202.386 82.9274L201.885 81.841L201.131 80.9057L200.578 79.9752L198.463 77.5898C197.952 77.4245 199.698 83.8233 200.212 79.5028C200.058 80.8002 199.902 79.8161 198.463 77.5898C196.174 75.9838 196.475 75.9806 193.331 74.3306C189.938 72.5608 187.004 72.1136 184.748 71.805C184.21 71.7358 182.75 71.6854 182.212 71.7169Z" fill="#0B0B45"/>
<path d="M198.917 101.491C198.894 101.552 198.613 102.579 198.494 102.898C198.296 103.42 197.756 104.847 197.044 107.718C197.168 107.226 197.235 106.949 197.044 107.718C196.895 108.412 197.114 107.438 196.879 108.486C196.559 109.576 196.839 108.899 195.535 113.896C194.394 119.61 194.681 120.049 193.692 114.014C193.333 112.462 191.27 102.71 191.189 102.361C191.158 102.222 191.126 102.104 191.122 102.099C191.118 102.093 190.966 102.111 190.782 102.14C190.468 102.186 189.234 102.438 187.563 102.685C187.14 102.746 185.724 102.89 185.676 102.898L187.008 102.753V102.898C187.008 103.132 186.895 102.605 187.836 105.996C188.32 107.736 188.571 108.483 189.008 110.061C189.392 111.439 189.537 111.816 189.816 112.818C190.095 113.821 190.203 114.072 190.587 115.45C190.97 116.828 191.198 117.321 191.477 118.323C191.757 119.326 191.828 119.529 192.212 120.907C192.431 121.699 192.583 122.138 192.651 122.382C193.256 124.557 194.04 127.793 194.165 128.253C194.234 128.5 193.971 127.499 193.985 127.545C194.481 126.229 195.258 124.172 195.535 123.439C195.652 123.128 196.002 121.727 196.473 120.483C196.863 118.95 197.426 117.494 197.689 116.376C198.026 114.947 199.195 109.532 199.205 109.521C199.213 109.508 200.863 114.542 201.088 115.161C201.508 116.315 201.877 117.362 202.692 119.596C202.948 120.295 203.139 120.796 203.239 121.071C203.339 121.346 203.602 122.17 203.856 122.864C204.973 125.929 204.652 124.943 204.981 125.843L205.145 126.528L205.184 126.653L205.333 126.884L205.536 127.545C206.171 125.303 207.278 120.904 207.505 120.11C207.584 119.835 207.882 118.781 208.167 117.771C209.182 114.194 210.286 111.492 210.428 110.996C210.507 110.721 210.96 109.505 211.247 108.486C211.535 107.468 212.099 106.562 212.099 105.996C212.866 103.304 212.982 103.281 212.505 102.985L212.779 103.132C212.735 103.124 211.124 102.741 209.932 102.564C208.74 102.386 210.161 102.6 209.932 102.564C209.703 102.53 208.7 102.267 209.302 102.361L208.732 104.836C208.154 107.211 206.844 112.363 206.724 112.867C206.676 113.065 205.528 118.786 205.184 118.786C204.969 118.786 203.579 113.547 203.239 112.635C202.522 110.712 201.494 107.559 200.792 105.675C200.458 104.783 200.213 103.438 199.932 102.685L199.677 101.491H199.307L198.909 101.471L198.917 101.491Z" fill="#0B0B45"/>
<g clip-path="url(#clip0_15_77)">
<path d="M11.6428 55.9543C11.39 56.2377 11.2005 56.6576 11.1851 57.0383C11.2011 57.1555 11.296 57.1945 11.3751 57.1163C11.4542 57.038 11.5014 56.8916 11.5805 56.8134C11.628 56.8329 11.6756 56.8524 11.7388 56.823C17.498 55.6464 23.3106 59.4683 27.9358 62.9691C31.2621 65.4948 34.2724 68.3331 37.251 71.269C37.1244 71.3277 37.0455 71.5718 37.2199 71.6986C37.6158 71.9716 38.0593 72.264 38.4868 72.4394C39.7226 73.6099 40.9425 74.8291 42.1783 75.9995C42.4636 76.2824 42.717 76.497 43.0022 76.7798C42.8756 76.8385 42.8601 77.0533 43.0501 77.1312C43.2718 77.2775 43.5093 77.3749 43.7943 77.4918C45.2836 78.8769 46.8203 80.2813 48.3728 81.6369C48.2937 81.7152 48.2465 81.8616 48.389 81.9201C48.6583 82.0858 48.9749 82.2711 49.26 82.388C54.6939 87.2158 60.3491 91.8578 66.2095 96.0312C67.2551 96.9578 68.4429 97.7768 69.7256 98.4688C70.2484 98.8491 70.8343 99.2 71.3727 99.5315C71.8006 100.039 72.4341 100.409 73.1624 100.653C75.2212 101.94 77.2959 103.178 79.4178 104.269C93.1158 111.657 107.917 115.296 122.921 116.142C129.996 116.555 137.197 116.578 144.191 115.908C147.514 115.612 150.758 114.897 153.969 113.947C157.054 113.056 160.693 111.95 163.97 112.796C164.112 112.855 164.223 112.679 164.255 112.581C168.781 113.056 173.561 113.413 177.944 112.667C179.242 112.48 180.681 112.02 181.345 110.799C181.929 109.656 180.898 108.183 179.901 107.774C179.236 107.501 178.65 107.316 177.954 107.473C177.732 107.493 177.701 107.756 177.859 107.932C174.758 108.042 171.688 108.386 168.602 108.614C168.602 108.614 168.602 108.614 168.555 108.594C164.96 107.065 162.787 102.966 159.92 100.352C157.67 98.3235 155.009 96.2367 152.08 95.3118C151.859 95.1655 151.669 95.0876 151.447 94.9413C151.352 94.9024 151.305 95.0488 151.336 95.1171C150.988 95.0296 150.64 94.942 150.228 94.8838C150.181 94.8643 150.165 94.9131 150.165 94.9131C149.357 94.25 148.518 93.6845 147.631 93.2654C147.583 93.2459 147.52 93.2753 147.504 93.3241C146.569 92.0558 145.444 90.8755 144.208 89.871C144.161 89.8515 144.082 89.7637 144.034 89.7442C144.034 89.7442 144.034 89.7442 143.987 89.7247C143.005 88.9348 141.991 88.2425 140.962 87.5991C140.502 87.0235 140.042 86.4479 139.44 85.9798C138.712 85.2386 137.777 84.468 136.811 84.1273C136.035 83.2004 135.211 82.4202 134.276 81.6497C132.549 80.0013 130.125 77.348 127.577 77.4088C126.23 76.4142 124.742 75.693 123.191 75.4991C122.541 74.8455 121.844 74.3385 120.973 74.0366C120.926 74.0171 120.863 74.0464 120.847 74.0953C119.294 72.0758 116.966 70.7891 114.749 69.6585C114.654 69.6196 114.575 69.6978 114.606 69.766C113.465 68.3026 111.438 67.4159 109.634 66.8415C109.697 66.8121 109.745 66.8316 109.808 66.8022L109.824 66.7534C109.111 66.627 108.383 66.3836 107.686 66.2086C107.196 66.0626 106.594 65.7604 106.056 65.7609C105.01 64.8344 103.696 64.24 102.066 63.9583L102.034 63.89C100.625 63.2566 98.8991 62.77 97.4437 63.279C96.62 62.6646 95.654 62.1577 94.704 61.7681C94.7198 61.7192 94.7355 61.6704 94.688 61.6509C91.2678 60.0821 87.3889 58.7675 83.7335 59.0929C81.6906 57.9231 79.4108 57.1539 77.021 57.0584C76.6727 56.9708 76.3562 56.9515 75.9921 56.9128C75.3748 56.8254 74.615 56.6798 73.9821 56.8072C71.5748 55.2667 68.899 54.2245 66.1448 53.7582C66.0339 53.7681 65.955 53.8462 65.9866 53.9145C65.8758 53.9244 65.7809 53.8855 65.6701 53.8953C65.306 53.8566 64.8312 53.8277 64.3881 53.8672C61.9654 52.7076 59.3851 52.0361 56.8688 52.1653C56.758 52.1751 56.6473 52.185 56.5365 52.1948C56.5365 52.1948 56.5365 52.1948 56.489 52.1753L56.4414 52.1558C56.2199 52.1756 55.9984 52.1952 55.8243 52.2345C55.761 52.2638 55.7134 52.2443 55.6977 52.2932C55.4761 52.313 55.2389 52.3815 55.0332 52.5183C52.6421 51.261 50.1884 50.6968 48.1165 51.7824C47.8317 51.8314 47.5943 51.9 47.3095 51.949C46.8349 52.0862 46.2811 52.1355 45.7749 52.3702C44.3023 51.7661 42.7668 51.3575 41.1683 51.3101C40.5509 51.2227 39.9181 51.3502 39.3484 51.4484C38.7155 51.5759 37.9561 51.762 37.3552 52.1237C35.9621 51.7735 34.5851 51.7063 33.1454 52.0005C33.0821 52.0299 33.0821 52.0299 33.0663 52.0787C32.9555 52.0886 32.8448 52.0985 32.6865 52.0888C32.2908 52.1477 31.7528 52.1481 31.3257 52.3047C28.1434 51.1652 24.5669 51.4125 21.4977 52.2548C20.1051 52.4024 18.7603 52.7355 17.4313 53.0198C15.5011 53.4999 13.2703 54.0779 11.7051 55.4265C11.5001 55.7299 11.5478 55.9153 11.6428 55.9543ZM48.8916 64.8741C51.4091 65.9067 53.9584 67.0077 56.4444 68.138C52.8359 67.9849 49.1948 66.9337 45.6182 67.0149C41.6618 67.1063 38.0235 68.5445 34.0181 67.2887C32.6556 66.011 31.2774 64.7821 29.8201 63.6313C31.799 64.1666 33.8085 63.9402 35.7705 63.5285C38.7766 62.8815 41.3082 62.3717 44.4425 62.9937C45.8674 63.5784 47.3873 64.2019 48.8916 64.8741ZM64.8206 71.8504C60.7848 71.6879 56.7648 71.4767 52.7608 71.5485C47.8708 71.6992 43.5842 73.6457 38.8502 71.8144C38.2798 71.2487 37.7412 70.7513 37.1708 70.1855C40.512 71.8325 44.563 71.4482 47.9486 70.4592C48.0752 70.4005 48.0275 70.2151 47.9167 70.2249C43.5652 70.8731 39.0083 71.6581 35.2062 68.2738C35.1586 68.2543 35.1111 68.2348 35.1111 68.2348C34.9844 68.1275 34.9052 68.0397 34.7785 67.9325C37.6599 68.8379 40.7449 67.9468 43.5772 67.505C48.1501 66.8371 52.8047 68.4146 57.4101 68.4789C59.8486 69.5898 62.3346 70.72 64.8206 71.8504ZM39.9752 72.9948C43.2521 73.8413 46.97 72.8227 50.008 72.244C55.0554 71.273 60.4057 72.3618 65.5491 72.2597C67.6076 73.2147 69.6661 74.1696 71.7087 75.1734C72.6429 75.6119 73.5772 76.0505 74.4956 76.5377C72.8337 76.3537 71.2189 75.8573 69.541 75.556C66.676 75.0997 63.4952 75.288 60.6626 75.5638C55.1559 76.125 49.8411 78.59 44.2371 77.1207C42.8111 75.7063 41.3694 74.3409 39.9752 72.9948ZM85.5325 81.839C79.7876 81.8049 73.9938 80.4237 68.3131 81.1902C63.5502 81.7802 59.1996 83.0922 54.5939 82.862C53.3593 82.6874 52.1087 82.3956 50.9054 81.9573C48.6571 81.0904 47.2938 79.1488 45.2984 77.9985C45.2509 77.979 45.2667 77.9302 45.2192 77.9107C49.6992 79.0295 54.8085 76.8674 59.0492 76.2292C62.6094 75.6988 66.4073 75.4319 70.0796 76.0536C71.7575 76.3547 73.6575 77.134 75.3505 76.8885C78.7393 78.5549 82.1438 80.1725 85.5325 81.839ZM86.6782 87.2855C89.9539 87.1363 93.3734 88.0411 96.5537 87.355C96.617 87.3256 96.6327 87.2768 96.5852 87.2573C97.8361 87.8811 99.103 88.4559 100.354 89.0796C86.3134 86.583 73.364 97.0307 59.4295 90.3749C58.1939 89.3705 57.0058 88.3855 55.7702 87.381C60.4885 89.261 66.8801 87.4591 71.2156 86.6938C78.6522 85.3205 86.3271 84.7085 93.9408 85.9514C94.78 86.351 95.6192 86.7505 96.4585 87.15C93.1989 87.5824 89.8745 86.7164 86.6148 87.1489C86.599 87.1978 86.615 87.3149 86.6782 87.2855ZM77.7046 100.747C77.7203 100.698 77.6886 100.629 77.6411 100.61C78.5431 100.648 79.4136 100.618 80.2205 100.451C80.3313 100.442 80.3468 100.227 80.1885 100.217C77.7354 100.151 75.3611 99.8407 72.9231 99.0618C70.3425 98.2244 68.1568 96.6644 65.8604 95.28C65.8128 95.2605 65.7337 95.1727 65.6861 95.1532C72.0356 97.9788 78.7768 97.4262 85.2641 96.1611C88.7766 95.4453 92.0668 94.0854 95.4682 93.0475C99.1701 91.9118 102.731 91.7134 106.624 92.1494C108.018 92.8316 109.427 93.4648 110.773 94.1276C105.517 92.9119 99.9497 95.494 95.2989 97.2359C91.9452 98.4591 88.5597 99.6142 85.1107 100.466C82.5793 100.977 80.1896 101.047 77.7046 100.747ZM88.5386 94.8502C84.9632 95.9272 81.1814 96.4771 77.3992 96.6953C72.6834 96.9729 68.7736 96.2538 64.4032 94.1294C64.3557 94.1099 64.3082 94.0904 64.2924 94.1393C63.2945 93.3982 62.3441 92.6765 61.3462 91.9355C66.6979 94.186 73.3753 93.1648 78.565 92.0864C85.7799 90.5668 92.8671 88.1102 100.481 89.3531C100.576 89.3921 100.607 89.2944 100.576 89.2261C102.254 90.0252 103.933 90.8243 105.611 91.6234C99.6275 90.4959 94.0124 93.2246 88.5386 94.8502ZM74.538 85.7342C71.4049 86.108 68.3037 86.716 65.1548 87.1385C61.3889 87.6396 58.0021 87.6329 54.4238 86.2204C53.204 85.1671 51.9842 84.1138 50.7801 83.0116C55.6723 84.6865 61.2884 82.9536 66.051 82.0317C72.7756 80.698 79.377 82.4105 86.1818 82.1605C88.6045 83.3201 91.0114 84.5287 93.4341 85.6883C87.1813 84.3954 80.6301 85.0259 74.538 85.7342ZM49.5126 81.9389L49.5602 81.9584C49.5602 81.9584 49.5602 81.9584 49.5126 81.9389ZM78.6888 103.362C77.3111 102.631 75.9492 101.851 74.6506 101.042C75.1096 101.12 75.5844 101.149 76.0118 101.158C81.0301 102.442 86.6936 100.563 91.2181 99.0457C97.9099 96.8139 104.363 93.4889 111.739 94.6344C111.787 94.6539 111.803 94.6051 111.803 94.6051C113.291 95.3262 114.795 95.9985 116.284 96.7197C113.435 96.8784 110.776 96.6171 107.928 97.2737C104.859 97.9501 101.964 99.251 99.0854 100.503C93.2011 103.066 87.8706 105.58 81.1902 103.946C81.0952 103.907 81.0321 104.102 81.1271 104.141C86.3837 106.186 91.857 104.063 96.555 102.009C99.4971 100.727 102.408 99.3775 105.429 98.3498C107.296 97.7331 109.289 97.2236 111.283 97.0462C113.119 96.8591 115.002 97.1893 116.838 97.0023C116.933 97.0413 117.076 97.0997 117.171 97.1387C118.485 97.7331 119.847 98.347 121.161 98.9413C119.056 99.1286 116.951 98.8181 114.847 99.3374C112.331 99.9644 109.99 101.216 107.697 102.321C102.588 104.649 97.7155 106.577 92.0661 106.914C92.0028 106.943 92.0346 107.011 92.0821 107.031C96.8779 107.505 101.528 105.431 105.783 103.582C108.346 102.477 110.734 101.079 113.328 100.042C116.097 98.9653 118.819 99.5291 121.668 99.2045C123.029 99.8184 124.439 100.452 125.8 101.066C120.102 100.387 114.787 102.686 109.741 104.819C107.005 105.963 104.3 107.342 101.532 108.419C99.6335 109.133 97.8932 109.525 96.0892 109.614C97.7032 109.447 99.2853 109.045 100.709 108.468C100.836 108.409 100.756 108.156 100.598 108.146C98.1928 108.597 95.851 109.019 93.398 108.953C91.483 108.886 89.6148 108.341 87.7151 107.728C84.7537 106.403 81.7293 104.941 78.6888 103.362ZM102.976 112.44C108.04 111.752 112.5 109.766 116.961 107.449C121.658 105.062 126.989 102.549 132.498 103.813C134.065 104.456 135.585 105.079 137.153 105.722C135.364 105.597 133.528 105.618 131.788 106.01C129.225 106.618 126.742 107.977 124.306 109.024C121.806 110.1 119.275 111.108 116.729 111.998C114.419 112.82 109.942 114.523 107.393 113.588C107.346 113.568 107.282 113.598 107.266 113.647C102.723 112.723 98.2274 111.487 93.826 109.958C98.2737 110.511 102.671 108.554 106.546 106.716C112.937 103.752 119.137 101.042 126.402 101.368C126.512 101.358 126.528 101.309 126.56 101.212C127.969 101.845 129.394 102.429 130.803 103.063C127.131 102.607 123.319 104.085 120.123 105.483C114.413 108.007 109.226 111.243 102.976 112.44ZM110.211 114.191C110.147 114.22 110.1 114.2 109.989 114.21C110.053 114.181 110.163 114.171 110.211 114.191ZM123.709 112.871C121.652 113.409 119.627 114.016 117.538 114.321C115.228 114.645 113.06 114.364 110.781 114.093C111.619 113.994 112.379 113.808 113.012 113.681C115.654 113.161 118.232 112.006 120.747 111.048C123.658 109.864 126.489 108.592 129.368 107.34C132.231 106.137 134.779 106.242 137.707 106.005C138.609 106.375 139.464 106.726 140.367 107.096C140.699 107.232 141.032 107.369 141.38 107.456C132.661 107.806 126.18 115.045 117.571 115.219C119.929 114.914 122.191 114.239 123.836 113.31C123.994 113.153 123.93 112.851 123.709 112.871ZM120.23 115.48C123.252 114.951 125.988 113.474 128.661 112.027C133.011 109.719 137.187 108.114 142.108 107.7C142.631 107.914 143.217 108.099 143.739 108.313C140.606 108.355 137.062 109.335 134.928 111.611C134.849 111.689 134.96 111.845 135.039 111.767C137.869 109.832 140.891 108.638 144.388 108.635C144.452 108.606 144.515 108.576 144.531 108.528C145.164 108.732 145.75 108.917 146.383 109.121C142.554 109.486 138.978 110.397 135.689 112.421C132.178 114.63 128.792 115.121 124.756 115.623C124.709 115.603 124.693 115.652 124.677 115.701C123.174 115.693 121.702 115.586 120.23 115.48ZM136.057 115.945C137.512 115.436 138.951 114.644 140.201 113.94C143.617 112.023 147.097 110.907 151.069 110.601C151.133 110.572 151.196 110.542 151.212 110.494C152.763 110.854 154.267 111.194 155.834 111.505C153.302 111.683 150.834 112.495 148.43 113.279C145.06 114.385 141.737 115.178 138.257 115.962C137.513 115.934 136.8 115.974 136.057 115.945ZM141.924 112.435C138.808 113.922 136.357 115.515 132.828 115.948C131.594 115.939 130.312 115.911 129.077 115.902C130.865 115.53 132.558 114.786 134.108 113.984C135.99 112.987 137.619 111.775 139.596 110.982C141.953 110.014 144.548 109.806 147.048 109.394C148.125 109.725 149.169 109.988 150.262 110.27C147.287 110.487 144.581 111.202 141.924 112.435ZM148.352 114.85C146.343 115.243 144.317 115.518 142.276 115.676C143.684 115.313 145.076 114.834 146.405 114.383C149.838 113.248 153.16 112.288 156.736 111.709C156.736 111.709 156.752 111.66 156.8 111.68C157.765 111.855 158.794 112 159.76 112.175C155.851 112.452 151.912 114.154 148.352 114.85ZM179.557 111.67C178.513 112.237 177.295 112.345 176.124 112.473C174.114 112.7 171.993 112.604 169.968 112.547C162.925 112.368 155.739 111.3 148.805 109.451C145.338 108.527 141.918 107.29 138.498 105.887L138.514 105.838C138.466 105.819 138.403 105.848 138.355 105.829C135.03 104.465 131.737 103.003 128.428 101.591C121.35 98.5215 114.335 95.2572 107.336 91.944C96.838 86.9741 86.4185 81.7602 75.9042 76.6733C75.92 76.6244 75.8407 76.5366 75.7775 76.566C75.73 76.5465 75.6667 76.5759 75.6193 76.5564C73.7983 75.6988 72.0406 74.812 70.2196 73.9544C71.8664 74.6852 73.5763 75.3866 75.2231 76.1174C75.4448 76.2637 75.7141 76.4295 75.9358 76.5756C76.0309 76.6146 76.0467 76.5658 76.1256 76.4876C76.6957 76.7214 77.2498 77.0041 77.8198 77.2379C77.9622 77.2963 78.089 77.4036 78.2315 77.4621C78.279 77.4816 78.279 77.4816 78.3423 77.4522C82.3483 79.206 86.3386 81.0086 90.3445 82.7624C97.359 85.8608 104.247 89.3499 111.167 92.7413C111.436 92.9071 111.706 93.0728 111.991 93.1897C112.038 93.2092 112.086 93.2287 112.101 93.1798C114.603 94.4273 117.169 95.6454 119.75 96.8146C123.407 98.4808 127.033 100.079 130.722 101.481C130.77 101.501 130.802 101.569 130.849 101.589C130.897 101.608 130.944 101.628 131.007 101.598C137.277 104.004 143.673 106.019 150.243 107.498C154.105 108.363 157.92 109.043 161.75 109.176C161.956 109.205 162.209 109.254 162.415 109.283C162.51 109.322 162.589 109.244 162.605 109.195C163.253 109.185 163.95 109.194 164.599 109.184C169.331 109.023 174.062 108.531 178.73 108.068C180.503 108.408 181.376 110.702 179.557 111.67ZM123.755 98.2362C123.724 98.1678 123.692 98.0995 123.644 98.08C123.771 98.1873 123.945 98.3141 124.072 98.4213C123.993 98.3336 123.85 98.2751 123.755 98.2362ZM136.596 102.95C136.77 103.077 136.897 103.184 137.055 103.36C136.881 103.233 136.659 103.087 136.485 102.96C136.548 102.931 136.548 102.931 136.596 102.95ZM161.362 102.216C163.581 104.508 165.182 107.377 168.08 108.731C167.637 108.771 167.194 108.81 166.767 108.801L166.735 108.733C166.323 108.674 165.991 108.704 165.611 108.548C164.994 108.295 164.486 107.7 164.043 107.241C163.33 106.451 162.806 105.573 162.204 104.773C162.125 104.685 162.046 104.763 162.077 104.832C162.522 105.954 163.394 107.086 164.218 107.866C164.503 108.149 165.01 108.578 165.469 108.822C165.247 108.841 165.089 108.832 164.867 108.851C164.883 108.802 164.852 108.734 164.741 108.744C161.227 108.132 160.304 103.993 158.782 101.212C157.767 99.3583 156.056 97.8272 154.203 96.7353C156.879 98.1095 159.223 100.011 161.362 102.216ZM151.717 95.6051C152.525 96.2683 153.285 96.912 153.951 97.6827C154.822 98.6484 155.346 99.8585 156.091 100.883C156.17 100.971 156.297 100.912 156.281 100.795C156.01 99.4675 155.106 98.1014 153.95 97.0189C156.896 98.8908 158.576 101.515 160.178 104.882C161.067 106.795 162.224 108.375 164.155 108.891C163.554 108.921 162.969 108.902 162.335 108.863C158.331 108.271 156.838 104.065 154.841 100.923C153.556 98.9034 152.05 96.7373 150.197 95.1477C150.703 95.2447 151.242 95.4103 151.717 95.6051ZM130.063 78.8711C130 78.9005 129.984 78.9493 130.064 79.0371C132.091 80.7536 134.324 82.1672 136.241 84.0595C136.194 84.04 136.146 84.0205 136.099 84.0011C135.941 83.9915 135.941 84.1574 136.02 84.2452C136.321 84.4793 136.638 84.6644 137.002 84.8691C137.002 84.8691 137.05 84.8886 137.034 84.9375C139.157 87.5228 139.715 90.7928 139.972 93.9947C140.357 98.2997 141.092 104.85 146.063 106.115C146.111 106.134 146.142 106.037 146.095 106.017C139.618 102.752 141.065 95.2727 139.492 89.3188C139.11 87.8352 138.428 86.4495 137.525 85.2494C137.667 85.3078 137.794 85.4152 137.937 85.4736C138.301 85.6783 138.649 85.9318 138.998 86.1854C140.566 87.8241 141.771 89.4242 142.596 91.6982C143.549 94.2454 143.964 96.9591 144.631 99.5555C145.458 102.825 147.631 106.758 151.144 107.038C151.192 107.057 151.208 107.008 151.16 106.989C143.481 104.116 145.116 94.3905 141.216 88.3117C142.293 89.1407 143.338 89.9012 144.352 90.7595C145.889 92.6619 146.335 94.6141 146.48 97.162C146.593 98.8118 146.753 100.813 147.689 102.247C147.721 102.316 147.8 102.237 147.815 102.189C147.307 100.764 146.91 99.6609 146.814 98.1282C146.718 97.0935 146.732 96.0489 146.636 95.0142C146.508 93.9111 146.19 92.896 145.667 92.0178C145.794 92.1251 145.952 92.3007 146.063 92.4568C147.695 94.2322 148.711 96.4182 149.679 98.5846C151.472 102.693 153.061 108.1 158.125 108.408L158.141 108.359C152.03 106.627 151.248 100.555 148.536 95.4615C148.234 94.8956 147.917 94.3784 147.552 93.8418C151.37 96.8454 153.748 100.143 156.237 104.427C157.347 106.32 158.679 108.027 160.452 108.865C157.033 108.624 153.614 108.051 150.1 107.273C147.187 106.631 144.322 105.843 141.425 104.987C135.471 102.102 136.158 93.9787 134.49 88.4839C133.473 85.1361 131.3 81.0377 128.338 78.3849C129.066 78.4619 129.557 78.6079 130.063 78.8711ZM131.999 83.37C133.87 86.4045 134.76 89.811 135.366 93.2665C136.019 96.9075 136.912 102.803 140.586 104.587C139.652 104.314 138.733 103.993 137.815 103.671C135.645 101.897 134.012 99.9551 133.455 97.017C133.073 95.0355 133.34 93.0437 132.404 91.1115C132.372 91.0432 132.246 91.1019 132.277 91.1703C133.135 93.6786 132.616 96.4516 133.616 98.8523C134.219 100.316 135.122 101.516 136.199 102.511C130.831 99.6455 128.496 91.8862 127.128 86.2933C126.46 83.531 125.759 79.0408 123.746 76.2797C127.229 77.8193 129.811 79.8183 131.999 83.37ZM127.67 89.7782C129.02 93.7602 131.196 100.348 135.297 102.473C135.551 102.687 135.852 102.921 136.105 103.136C134.316 102.513 132.543 101.841 130.77 101.169C125.177 96.1652 122.668 88.777 122.343 81.4552C122.23 79.3075 122.338 76.6421 121.101 74.6419C125.695 78.4063 125.876 84.5079 127.67 89.7782ZM121.658 77.4141C122.374 80.5277 122.061 83.8278 122.713 86.971C123.748 92.2615 126.128 97.2189 130.057 100.876C128.426 100.263 126.811 99.6004 125.212 98.8891C125.228 98.8403 125.212 98.7232 125.117 98.6842C124.341 98.2553 123.628 97.6312 122.994 96.9287C122.709 96.4799 122.376 96.0115 122.043 95.5433C120.6 93.016 119.9 89.6875 119.992 87.2369C120.099 84.4056 121.061 81.5931 119.365 79.0172C119.301 78.8805 119.143 79.037 119.159 79.1541C120.763 83.1847 119.042 87.1792 120.076 91.3079C120.346 92.3035 120.648 93.3673 121.076 94.3725C120.236 93.3091 119.412 92.1969 118.825 91.016C116.826 87.0444 116.093 82.6517 116.31 78.3169C116.433 75.4368 116.461 72.6837 114.734 70.2054C114.702 70.1371 114.654 70.1176 114.623 70.0493C117.537 72.3509 120.688 73.0901 121.658 77.4141ZM107.94 66.7555C107.988 66.7749 107.988 66.7749 107.94 66.7555C111.393 68.7245 114.78 69.0633 115.782 73.7876C116.451 77.0478 115.616 80.4655 116.158 83.7843C116.987 88.8797 119.636 94.5008 123.407 98.1488C121.95 97.4959 120.494 96.8431 118.989 96.1709C118.657 96.0344 118.34 95.8492 118.055 95.7323C118.055 95.7323 118.071 95.6835 118.023 95.664C111.655 90.3977 110.823 82.1489 109.801 74.486C109.386 71.2743 108.433 68.3952 106.595 66.4247C107.038 66.5512 107.497 66.6289 107.94 66.7555ZM99.3907 63.5803C99.913 63.6287 100.404 63.7747 100.895 63.9207C100.847 63.9012 100.784 63.9306 100.784 63.9306C100.515 63.9308 100.499 64.3116 100.768 64.3114C104.726 64.8839 107.291 66.5999 108.61 70.6796C109.578 73.6759 109.709 76.9366 110.171 80.0016C111.08 85.6827 112.954 91.7047 117.564 95.4203C115.696 94.5432 113.827 93.6663 111.974 92.7404C106.368 89.1135 106.421 80.2879 104.61 74.4026C103.307 70.1081 101.087 66.1562 97.7132 63.6111C98.2512 63.6106 98.8209 63.5124 99.3907 63.5803ZM87.7543 59.8025C89.6537 60.084 91.427 60.7561 93.2478 61.4476C93.137 61.4575 93.0897 61.6039 93.2323 61.6624C96.7321 63.6509 99.646 65.2885 101.803 68.9379C103.579 71.9335 104.532 75.4765 105.28 78.8246C106.234 83.0315 106.827 88.8593 110.233 91.9706C109.124 91.4053 108.048 90.9085 106.939 90.3431C106.971 90.2454 106.939 90.1772 106.844 90.1383C99.8134 86.9227 102.064 75.7912 98.0848 70.1225C98.0056 70.0347 97.9266 70.1129 97.9425 70.23C100.115 74.3284 100.421 78.3797 101.534 82.7622C102.17 85.2901 103.407 88.1203 105.53 89.7098C105.292 89.6123 105.071 89.4661 104.833 89.3686L104.801 89.3003C97.2643 85.9876 95.7642 75.1424 92.1797 68.419C90.3082 64.8865 87.5508 61.7649 84.3041 59.659C85.4435 59.6288 86.5828 59.5985 87.7543 59.8025ZM67.5072 54.8705C67.5546 54.89 67.5546 54.89 67.5072 54.8705C70.3098 56.0201 73.0328 56.9159 75.6146 58.749C78.5766 60.904 80.7958 64.0261 82.746 67.1485C86.3611 72.9444 88.7282 80.7721 94.7937 84.4765C94.9204 84.5838 95.0943 84.3787 94.9201 84.2519C88.4262 79.7081 85.9791 71.1289 81.7145 64.6793C79.7962 61.7913 77.2452 59.1966 74.3627 57.2954C74.7743 57.3536 75.1541 57.3436 75.5181 57.3822C75.6763 57.3918 75.8822 57.4209 76.0404 57.4306C76.0879 57.4501 76.0879 57.4501 76.1355 57.4696C76.5945 57.5473 77.0377 57.6739 77.481 57.8004C79.8089 59.087 81.9151 60.2275 83.5952 62.5202C83.6745 62.608 83.7535 62.5298 83.7376 62.4127C83.1345 60.9489 81.471 59.4371 79.7607 58.4038C80.6314 58.7056 81.4548 58.988 82.2622 59.3192C82.1989 59.3486 82.1514 59.3291 82.0882 59.3585C81.9774 59.3683 81.9618 59.5831 82.1202 59.5928C82.3417 59.573 82.595 59.6217 82.8165 59.6019C84.5424 60.4205 86.1739 61.532 87.7582 63.1219C90.5944 65.9994 92.4504 69.7467 93.9423 73.4553C95.8786 78.2861 97.9594 84.8351 102.347 88.0725C98.3883 86.1723 94.4295 84.2719 90.4393 82.4694C88.9351 81.7971 87.3834 81.1052 85.879 80.433C85.8948 80.3841 85.9263 80.2865 85.8313 80.2476C79.8445 76.2989 78.2217 68.8318 74.4009 63.0068C72.1655 59.6015 68.8859 56.4315 65.2277 54.4333C66.0666 54.5008 66.7789 54.6271 67.5072 54.8705ZM55.8253 52.8989C55.9361 52.889 56.0626 52.8304 56.1734 52.8205C58.7373 52.8769 61.0642 53.3337 63.281 54.2982C63.202 54.3764 63.2022 54.5423 63.3604 54.5519C63.6137 54.6005 63.8195 54.6296 64.0885 54.6294C65.4345 55.2921 66.7331 56.1013 68.0794 57.0959C71.4693 59.7581 74.1477 63.124 76.1304 66.9784C78.5572 71.6234 80.5895 77.3231 85.1506 80.1893C82.8388 79.1857 80.4954 78.1139 78.1836 77.1104C73.8598 74.1756 72.9674 68.9435 70.3671 64.6697C70.3353 64.6014 70.2088 64.6601 70.2405 64.7284C71.9382 68.4662 73.4477 73.7855 76.8061 76.5454C76.4261 76.3896 75.9986 76.2142 75.6343 76.0095C69.4891 71.8852 67.2479 63.501 62.0985 58.2922C60.5141 56.7022 58.0902 54.5468 55.5563 53.0652C55.588 52.9675 55.7146 52.9088 55.8253 52.8989ZM47.2474 52.6428C47.9436 52.4861 48.6239 52.378 49.3044 52.2701C55.0331 52.021 60.4825 56.6341 64.0962 61.2682C67.6307 65.8145 69.7741 71.8363 74.3203 75.4152C72.0561 74.4311 69.7918 73.447 67.5118 72.5118C62.1739 68.5528 58.3065 63.5382 53.7589 58.6315C51.7306 56.4171 49.196 54.2715 46.409 52.9071C46.757 52.8288 47.0101 52.7114 47.2474 52.6428ZM39.3498 52.2788C39.8086 52.1905 40.2518 52.1511 40.6948 52.1116C43.6391 52.6557 46.2352 53.2783 48.8803 55.0821C51.4304 56.8469 53.617 59.2369 55.7088 61.5878C58.8305 65.0802 61.9373 69.2852 65.96 71.8199C65.8649 71.781 65.77 71.742 65.6274 71.6835C62.033 69.988 58.407 68.39 54.781 66.7922C54.7334 66.7727 54.7492 66.7238 54.7017 66.7043C50.1251 64.2188 47.3032 59.9647 43.7222 56.2288C42.2011 54.6096 40.3162 53.2835 38.2897 52.5627C38.6379 52.4844 39.0017 52.3571 39.3498 52.2788ZM32.4663 52.9389C33.2099 52.8016 33.9063 52.8108 34.6342 52.7222C34.6975 52.6929 34.7608 52.6635 34.7608 52.6635C36.7235 52.9156 38.5914 53.2947 40.4761 54.4549C42.3607 55.615 43.9296 57.4197 45.3875 59.0683C47.5585 61.5071 49.6661 63.9752 52.2637 65.7595C50.1894 64.8533 48.0994 63.9961 46.0251 63.0899C46.0884 63.0605 46.0882 62.8946 45.9932 62.8556C45.312 62.2997 44.3146 62.0565 43.5547 61.7448C43.3172 61.6473 43.0797 61.5499 42.858 61.4037C42.8895 61.306 42.8577 61.2377 42.7786 61.1499C38.7722 59.0642 36.3618 54.8684 32.3081 52.9291C32.3555 52.9488 32.403 52.9683 32.4663 52.9389ZM17.4327 53.8502C19.2522 53.3801 21.0878 53.1929 22.8913 52.7716C25.5498 52.5349 28.161 52.4448 30.7256 53.165L30.7731 53.1845C30.8682 53.2235 30.9156 53.243 31.0264 53.2331C32.103 53.564 33.1798 54.061 34.2567 54.7239C36.8065 56.3228 38.6296 59.006 41.1162 60.6341C41.3539 60.8975 41.5916 61.1609 41.8608 61.3267C38.5832 59.9823 35.2109 58.7649 31.8549 57.9966C26.8354 55.7165 20.5967 52.881 15.6459 55.2186C15.5193 55.2773 15.6146 55.4822 15.7253 55.4723C19.4598 55.0687 22.5775 55.0758 26.2821 56.2635C27.4537 56.6335 28.5462 57.0816 29.6862 57.5492C28.404 57.3551 27.1061 57.2097 25.8242 57.1815C25.6027 57.2013 25.603 57.5331 25.8246 57.5135C28.9902 57.872 32.0455 58.5723 35.0376 59.4678C34.452 59.4487 33.8824 59.5469 33.3285 59.5962C30.5118 59.8232 28.1382 60.1767 25.4147 58.949C25.2723 58.8905 25.2092 59.0858 25.2883 59.1736C26.6032 60.2659 28.2651 60.45 29.8477 60.3802C32.2531 60.2609 34.4683 59.8978 36.8898 60.0616C38.6946 60.636 40.4205 61.2886 42.1779 62.0095C40.7693 61.874 39.3452 62.1194 38.032 62.3548C34.8832 62.9433 32.0988 63.7366 28.8692 62.7436C27.7129 61.8269 26.4932 60.9395 25.2578 60.101C21.3616 57.5075 16.5478 55.0905 12.0384 56.061L12.0542 56.0122C12.149 55.8852 12.2439 55.7581 12.3861 55.6506C14.0157 55.1029 15.6133 54.3205 17.4327 53.8502Z" fill="#BFAB25"/>
</g>
<g clip-path="url(#clip1_15_77)">
<path d="M352.725 32.3831C352.726 31.9812 352.596 31.5333 352.368 31.2519C352.284 31.1817 352.192 31.2298 352.185 31.3482C352.178 31.4665 352.237 31.6077 352.23 31.726C352.184 31.7501 352.138 31.7742 352.112 31.8453C348.778 37.2669 342.27 39.1963 336.803 40.4066C332.866 41.2714 328.956 41.6632 325.008 41.9609C325.061 41.8185 324.963 41.583 324.761 41.6323C324.309 41.7548 323.812 41.9014 323.4 42.1181C321.792 42.2752 320.164 42.3852 318.556 42.5424C318.177 42.5697 317.863 42.6199 317.484 42.6472C317.536 42.5048 317.413 42.3406 317.229 42.4369C316.981 42.5101 316.752 42.6305 316.477 42.775C314.555 42.9824 312.587 43.2139 310.639 43.4925C310.645 43.3742 310.587 43.2329 310.449 43.3052C310.155 43.4025 309.815 43.5239 309.54 43.6684C302.669 44.5848 295.757 45.809 288.995 47.528C287.674 47.7061 286.32 48.0735 284.979 48.6064C284.371 48.7541 283.736 48.9728 283.147 49.1675C282.527 49.1497 281.846 49.3926 281.178 49.8008C278.915 50.5315 276.671 51.3093 274.486 52.2284C260.164 57.92 247.415 67.1425 236.275 78.5007C231.013 83.846 225.907 89.5679 221.382 95.6154C219.218 98.4727 217.373 101.563 215.698 104.794C214.076 107.883 212.197 111.565 209.348 113.578C209.211 113.65 209.243 113.862 209.282 113.956C205.784 117.228 202.18 120.785 199.548 124.805C198.748 125.971 198.019 127.443 198.316 128.835C198.62 130.109 200.273 130.33 201.235 129.824C201.876 129.487 202.407 129.151 202.8 128.485C202.945 128.295 202.801 128.083 202.579 128.086C204.703 125.536 206.658 122.846 208.697 120.226C208.697 120.226 208.697 120.226 208.743 120.202C212.244 118.42 216.353 119.586 220.02 119.149C222.884 118.791 226.075 118.146 228.726 116.466C228.975 116.393 229.158 116.297 229.407 116.223C229.498 116.175 229.44 116.034 229.374 116.011C229.676 115.795 229.977 115.58 230.304 115.293C230.35 115.269 230.331 115.222 230.331 115.222C231.318 115.047 232.266 114.778 233.156 114.368C233.202 114.343 233.229 114.272 233.209 114.225C234.666 114.377 236.202 114.315 237.706 114.04C237.752 114.016 237.863 114.015 237.909 113.991C237.909 113.991 237.909 113.991 237.955 113.967C239.145 113.743 240.296 113.425 241.428 113.06C242.114 113.1 242.8 113.141 243.519 112.992C244.5 112.936 245.644 112.736 246.541 112.207C247.671 112.244 248.743 112.139 249.888 111.939C252.143 111.728 255.522 111.673 257.286 109.599C258.862 109.229 260.367 108.553 261.585 107.454C262.455 107.399 263.266 107.202 264.071 106.721C264.117 106.697 264.143 106.626 264.124 106.579C266.489 106.769 268.942 105.824 271.219 104.857C271.311 104.809 271.318 104.69 271.253 104.667C272.978 104.793 274.967 103.805 276.604 102.773C276.578 102.844 276.532 102.868 276.505 102.939L276.525 102.986C277.108 102.508 277.776 102.1 278.378 101.668C278.817 101.38 279.432 101.115 279.812 100.685C281.133 100.507 282.435 99.8804 283.764 98.7803L283.83 98.8034C285.224 98.1282 286.749 97.0972 287.459 95.5776C288.427 95.3556 289.428 94.9442 290.344 94.4627C290.364 94.5098 290.383 94.5569 290.429 94.5328C293.832 92.9166 297.399 90.7551 299.78 87.6121C301.958 86.8113 304.053 85.5384 305.803 83.7016C306.104 83.4859 306.34 83.2474 306.622 82.9846C307.113 82.5545 307.742 82.052 308.109 81.4576C310.778 80.6284 313.324 79.2331 315.564 77.368C315.636 77.2727 315.643 77.1545 315.578 77.1315C315.65 77.0362 315.742 76.988 315.814 76.8928C316.096 76.63 316.449 76.2721 316.738 75.8911C319.179 74.7805 321.425 73.199 323.123 71.1025C323.195 71.0072 323.267 70.9119 323.339 70.8168C323.339 70.8168 323.339 70.8168 323.385 70.7927L323.431 70.7686C323.575 70.5781 323.719 70.3876 323.818 70.2212C323.844 70.15 323.89 70.1259 323.871 70.0788C324.015 69.8882 324.14 69.6507 324.199 69.3901C326.679 68.3737 328.768 66.8172 329.552 64.3986C329.722 64.1369 329.847 63.8993 330.018 63.6377C330.267 63.1625 330.628 62.6863 330.839 62.1169C332.259 61.3706 333.601 60.4359 334.761 59.1956C335.253 58.7654 335.62 58.1709 335.961 57.6476C336.329 57.0531 336.749 56.3163 336.947 55.5816C338.152 54.7192 339.168 53.6694 340.001 52.314C340.027 52.2428 340.027 52.2428 340.008 52.1957C340.08 52.1004 340.152 52.0052 340.27 51.8859C340.513 51.529 340.893 51.1 341.097 50.6488C344.062 48.9186 346.436 45.8938 348.078 42.8523C348.97 41.6383 349.712 40.331 350.473 39.0709C351.537 37.1933 352.751 35.0069 353.012 32.806C352.967 32.4281 352.817 32.335 352.725 32.3831ZM320.789 55.759C318.361 57.035 315.868 58.288 313.401 59.4698C316.049 56.7025 319.283 54.5442 321.761 51.6367C324.501 48.4192 326.171 44.503 329.792 42.1991C331.557 42.0168 333.302 41.7875 335.055 41.4399C333.32 42.6384 332.041 44.3998 330.912 46.2544C329.192 49.1075 327.722 51.4854 325.115 53.5432C323.741 54.2652 322.275 55.0356 320.789 55.759ZM305.149 63.5197C308.104 60.4185 311.08 57.3643 313.866 54.1229C317.229 50.1195 319.039 45.3271 323.535 42.8496C324.293 42.7951 324.986 42.7176 325.745 42.6631C322.349 44.1611 319.725 47.661 317.952 51.0583C317.899 51.2007 318.049 51.2938 318.122 51.1985C320.792 47.2726 323.521 43.0861 328.333 42.4493C328.379 42.4252 328.425 42.4011 328.425 42.4011C328.582 42.376 328.693 42.375 328.85 42.3498C326.244 44.0057 324.622 47.0943 322.897 49.6637C320.082 53.78 315.801 56.3738 312.504 59.9984C310.083 61.1561 307.616 62.3379 305.149 63.5197ZM321.999 42.9114C319.151 44.9242 317.161 48.6073 315.376 51.4373C312.416 56.1461 307.95 59.6398 304.377 63.8108C302.322 64.7759 300.267 65.7411 298.193 66.659C297.257 67.0934 296.322 67.5278 295.366 67.9151C296.657 66.7209 298.11 65.7851 299.486 64.661C301.798 62.7007 303.929 60.0327 305.759 57.5805C309.301 52.7953 311.512 46.8171 316.397 43.3902C318.292 43.254 320.169 43.0707 321.999 42.9114ZM284.236 72.9617C288.32 68.4078 293.283 64.7674 296.819 59.6985C299.817 55.4859 302.07 51.0911 305.471 47.5838C306.454 46.7234 307.521 45.9331 308.647 45.2841C310.781 44.1055 312.963 44.392 315.095 43.6153C315.141 43.5912 315.161 43.6383 315.207 43.6142C311.337 46.3932 309.08 51.9935 306.482 55.8242C304.298 59.0364 301.78 62.2516 298.793 64.7384C297.417 65.8626 295.585 66.8256 294.542 68.3484C291.1 69.8705 287.678 71.4397 284.236 72.9617ZM280.008 70.0234C277.786 72.7394 274.8 74.8245 272.982 77.844C272.955 77.9152 272.975 77.9623 273.021 77.9382C271.745 78.494 270.488 79.0971 269.213 79.6529C280.707 70.2296 283.308 52.5226 297.338 46.1247C298.842 45.8504 300.3 45.6001 301.804 45.3257C297.288 47.7563 293.899 54.1238 291.313 58.1199C286.917 65.0171 281.874 71.5659 275.71 76.7543C274.866 77.1405 274.022 77.5267 273.178 77.9131C275.211 75.0098 278.105 72.9729 280.139 70.0695C280.12 70.0224 280.035 69.9523 280.008 70.0234ZM277.908 53.3541C277.927 53.4012 277.993 53.4242 278.038 53.4001C277.377 54.092 276.78 54.8068 276.314 55.5677C276.242 55.6629 276.366 55.8272 276.484 55.7078C278.26 53.7998 280.133 52.1272 282.346 50.7351C284.696 49.2708 287.22 48.6321 289.713 47.781C289.759 47.7569 289.87 47.7559 289.916 47.7318C283.653 50.7937 279.233 56.5564 275.44 62.6206C273.405 65.9258 271.932 69.5094 270.178 72.9538C268.273 76.7069 265.879 79.6846 262.853 82.4792C261.439 83.1072 260.045 83.7824 258.678 84.3864C263.157 81.0578 265.474 74.7951 267.669 69.8572C269.273 66.3197 270.943 62.8052 272.847 59.454C274.317 57.0761 275.962 55.122 277.908 53.3541ZM273.947 66.157C275.799 62.5463 278.128 59.1436 280.666 55.9754C283.826 52.0212 287.042 49.414 291.465 47.4334C291.511 47.4093 291.557 47.3852 291.537 47.3381C292.708 47.067 293.833 46.8199 295.003 46.5486C289.807 49.222 285.726 55.2653 282.733 60.1634C278.585 66.9874 275.115 74.3722 268.951 79.5606C268.86 79.6088 268.899 79.703 268.964 79.7259C267.276 80.4984 265.587 81.271 263.899 82.0434C268.838 78.0725 271.096 71.6684 273.947 66.157ZM289.566 61.446C291.547 58.685 293.359 55.7837 295.32 52.9757C297.669 49.6203 300.068 46.9262 303.484 45.0734C305.007 44.8462 306.531 44.6189 308.074 44.4388C303.564 47.153 300.68 52.8537 297.891 57.3009C293.972 63.6027 288.23 67.6523 283.575 73.2518C281.134 74.3625 278.674 75.4259 276.233 76.5366C281.466 72.468 285.703 66.8016 289.566 61.446ZM309.643 44.1873L309.597 44.2114C309.597 44.2114 309.597 44.2114 309.643 44.1873ZM275.571 52.289C277.004 51.708 278.456 51.1742 279.882 50.7115C279.509 51.0224 279.155 51.3803 278.847 51.7142C274.492 54.8051 271.667 60.6472 269.419 65.3256C266.088 72.2363 263.611 79.7299 257.677 84.7979C257.631 84.822 257.65 84.8691 257.65 84.8691C256.145 85.5453 254.66 86.2687 253.155 86.9449C255.069 84.5628 257.113 82.6285 258.715 79.8948C260.461 76.9705 261.692 73.7439 262.942 70.5643C265.495 64.0629 267.687 58.0377 273.436 53.8697C273.528 53.8216 273.45 53.6332 273.358 53.6814C268.358 56.4239 265.82 62.2869 263.787 67.4832C262.51 70.734 261.299 74.0077 259.807 77.1422C258.874 79.0659 257.784 81.0147 256.486 82.7291C255.305 84.3241 253.766 85.5917 252.585 87.1867C252.494 87.2349 252.356 87.3071 252.265 87.3553C250.963 87.9823 249.614 88.6333 248.312 89.2604C249.683 87.4508 251.366 85.9928 252.528 83.9487C253.914 81.5007 254.784 78.7503 255.712 76.1411C257.864 70.4236 260.1 65.1779 263.883 60.4378C263.909 60.3666 263.844 60.3436 263.798 60.3677C260.11 63.8541 258.122 69.0263 256.274 73.7246C255.155 76.5483 254.344 79.44 253.16 82.2407C251.878 85.2078 249.599 86.9788 247.789 89.4782C246.441 90.1292 245.047 90.8044 243.699 91.4556C248.154 87.3945 250.469 81.5336 252.699 76.0044C253.916 73.0143 254.963 69.884 256.246 66.9168C257.14 64.899 258.124 63.2349 259.344 61.734C258.308 63.1386 257.441 64.6834 256.796 66.2261C256.744 66.3685 256.959 66.4846 257.077 66.3652C258.495 64.1296 259.886 61.9653 261.662 60.0572C263.058 58.5783 264.721 57.475 266.449 56.3948C269.374 54.9719 272.43 53.5954 275.571 52.289ZM252.701 65.2246C249.552 69.746 247.644 74.7047 245.944 79.8979C244.12 85.3286 241.928 91.3538 237.239 94.8497C235.727 95.6442 234.262 96.4146 232.75 97.2091C234.093 95.8725 235.378 94.3947 236.362 92.7305C237.794 90.2584 238.697 87.3185 239.762 84.6372C240.854 81.8846 242.012 79.1552 243.254 76.4957C244.371 74.0739 246.468 69.3024 248.858 67.9323C248.903 67.9082 248.93 67.837 248.91 67.7899C252.702 64.8225 256.657 62.1137 260.728 59.6874C257.237 62.841 255.355 67.7286 253.768 72.1169C251.109 79.3049 248.425 86.1622 243.084 91.721C243.012 91.8162 243.031 91.8634 243.07 91.9575C241.676 92.6326 240.302 93.3549 238.908 94.03C241.791 91.4259 243.559 87.3431 244.941 83.8077C247.395 77.4729 249.033 71.0511 252.701 65.2246ZM246.487 69.7515C246.513 69.6803 246.559 69.6563 246.631 69.561C246.605 69.6322 246.533 69.7275 246.487 69.7515ZM237.771 81.4414C238.887 79.4214 239.938 77.3785 241.224 75.4987C242.654 73.4285 244.364 71.8993 246.146 70.2749C245.614 71.0128 245.194 71.7497 244.827 72.3441C243.284 74.8173 242.185 77.6881 241.009 80.3705C239.693 83.527 238.489 86.6825 237.239 89.8621C235.97 92.9945 234.102 94.9507 232.18 97.4511C231.31 97.9085 230.485 98.3419 229.615 98.7993C229.294 98.9679 228.974 99.1364 228.672 99.352C234.619 92.1564 234.659 81.873 240.637 74.8898C239.161 76.984 237.985 79.2646 237.405 81.2322C237.392 81.4687 237.626 81.6318 237.771 81.4414ZM238.593 76.8239C236.789 79.6068 235.78 82.8313 234.798 85.9848C233.171 91.0827 231.225 95.5454 228.005 99.7602C227.501 100.025 226.97 100.361 226.466 100.626C228.656 98.0993 230.547 94.5827 230.628 91.2724C230.635 91.1541 230.458 91.1322 230.451 91.2504C229.664 94.8746 228.277 98.1264 225.806 100.916C225.779 100.987 225.753 101.058 225.772 101.105C225.196 101.465 224.666 101.801 224.09 102.161C226.569 98.8518 228.526 95.3582 229.582 91.3059C230.678 86.9459 232.764 83.9002 235.303 80.3301C235.349 80.306 235.329 80.2589 235.31 80.2118C236.378 79.0197 237.486 77.9218 238.593 76.8239ZM227.111 89.1074C226.401 90.627 225.88 92.334 225.438 93.8275C224.225 97.9049 222.464 101.468 219.848 104.849C219.822 104.921 219.795 104.992 219.815 105.039C218.492 106.021 217.215 106.978 215.912 108.007C217.59 105.864 218.826 103.322 220.035 100.853C221.723 97.3851 223.575 94.1763 225.544 90.848C226.088 90.2754 226.567 89.6799 227.111 89.1074ZM225.164 96.265C226.435 92.7306 227.168 89.6506 229.392 86.5326C230.27 85.5551 231.194 84.5535 232.072 83.5759C231.042 85.2641 230.312 87.1385 229.719 88.9408C229.014 91.1459 228.623 93.3008 227.722 95.4369C226.663 98 224.958 100.215 223.449 102.498C222.48 103.122 221.576 103.769 220.627 104.44C222.594 101.916 224.058 99.254 225.164 96.265ZM219.103 99.6794C220.278 97.8008 221.537 95.9922 222.882 94.2538C222.113 95.6322 221.43 97.0807 220.773 98.458C219.058 101.997 217.311 105.323 215.146 108.582C215.146 108.582 215.165 108.629 215.119 108.653C214.327 109.299 213.508 110.016 212.715 110.662C215.306 107.351 217.023 103.009 219.103 99.6794ZM199.033 126.796C199.416 125.563 200.209 124.515 200.957 123.491C202.236 121.73 203.796 120.108 205.264 118.533C210.356 113.048 216.108 108.076 222.171 103.858C225.202 101.749 228.397 99.8981 231.695 98.1647L231.715 98.2118C231.76 98.1877 231.787 98.1165 231.832 98.0925C235.039 96.4073 238.285 94.8162 241.512 93.178C248.442 89.7079 255.45 86.4263 262.478 83.1917C273.02 78.3399 283.659 73.7235 294.285 68.9418C294.305 68.9889 294.416 68.9878 294.442 68.9167C294.488 68.8926 294.514 68.8214 294.56 68.7974C296.386 67.9526 298.185 67.179 300.011 66.3343C298.388 67.1298 296.739 67.9965 295.116 68.7921C294.867 68.8653 294.573 68.9627 294.324 69.036C294.233 69.0842 294.252 69.1313 294.245 69.2495C293.696 69.5384 293.126 69.7802 292.577 70.0691C292.439 70.1413 292.282 70.1664 292.145 70.2386C292.099 70.2627 292.099 70.2627 292.073 70.3339C288.14 72.2861 284.187 74.1913 280.254 76.1434C273.35 79.5423 266.29 82.5644 259.269 85.6807C258.975 85.778 258.68 85.8754 258.405 86.0198C258.359 86.0439 258.314 86.068 258.333 86.1151C255.781 87.2268 253.203 88.4096 250.644 89.6396C247.013 91.3763 243.446 93.1358 239.957 95.0839C239.912 95.108 239.846 95.0849 239.801 95.109C239.755 95.133 239.709 95.1571 239.683 95.2283C233.74 98.5234 227.952 102.195 222.38 106.385C219.105 108.851 215.981 111.41 213.189 114.368C213.026 114.512 212.816 114.679 212.652 114.823C212.561 114.871 212.554 114.989 212.573 115.036C212.121 115.56 211.623 116.109 211.171 116.633C207.925 120.517 204.889 124.636 201.878 128.683C200.411 129.856 198.355 128.93 199.033 126.796ZM246.92 91.8265C246.985 91.8495 247.051 91.8726 247.097 91.8485C246.94 91.8736 246.737 91.9228 246.58 91.948C246.691 91.9469 246.829 91.8746 246.92 91.8265ZM234.883 98.7255C234.68 98.7747 234.523 98.7998 234.301 98.802C234.504 98.7528 234.752 98.6796 234.955 98.6303C234.929 98.7014 234.929 98.7014 234.883 98.7255ZM217.831 118.981C214.824 119.128 211.891 118.376 208.993 119.727C209.281 119.346 209.57 118.965 209.878 118.631L209.943 118.654C210.271 118.367 210.487 118.082 210.854 117.889C211.449 117.576 212.181 117.593 212.782 117.564C213.782 117.554 214.703 117.758 215.631 117.844C215.742 117.843 215.749 117.724 215.684 117.701C214.666 117.262 213.339 117.156 212.267 117.261C211.888 117.288 211.26 117.389 210.782 117.583C210.927 117.392 211.045 117.273 211.189 117.082C211.208 117.129 211.274 117.152 211.346 117.057C214.215 114.69 217.464 116.881 220.285 117.634C222.166 118.136 224.337 117.855 226.332 117.151C223.578 118.312 220.727 118.835 217.831 118.981ZM228.799 115.969C227.812 116.144 226.87 116.295 225.916 116.28C224.694 116.292 223.564 115.853 222.395 115.723C222.284 115.724 222.231 115.866 222.316 115.936C223.34 116.659 224.836 116.905 226.333 116.749C223.076 117.773 220.241 117.256 216.995 116.152C215.167 115.508 213.357 115.312 211.667 116.487C212.074 115.986 212.5 115.533 212.972 115.056C216.175 112.283 219.87 114.068 223.254 114.698C225.429 115.103 227.853 115.434 230.161 115.081C229.742 115.416 229.257 115.728 228.799 115.969ZM254.61 110.546C254.636 110.475 254.617 110.428 254.506 110.429C251.995 110.831 249.529 111.611 246.986 111.801C247.032 111.777 247.078 111.753 247.123 111.729C247.241 111.609 247.137 111.492 247.026 111.493C246.666 111.568 246.326 111.689 245.94 111.835C245.94 111.835 245.894 111.859 245.875 111.812C242.751 111.676 240.305 109.808 238.114 107.749C235.141 105.011 230.511 100.966 226.203 104.032C226.157 104.057 226.196 104.151 226.242 104.127C232.87 101.274 236.539 107.716 241.388 110.672C242.588 111.417 243.94 111.854 245.332 111.982C245.195 112.055 245.038 112.08 244.9 112.152C244.514 112.297 244.109 112.396 243.703 112.494C241.566 112.585 239.71 112.414 237.7 111.464C235.428 110.422 233.432 108.833 231.331 107.529C228.695 105.876 224.691 104.827 222.031 107.429C221.985 107.453 222.004 107.5 222.05 107.476C229.283 103.388 234.229 111.568 240.801 112.758C239.519 113.03 238.303 113.326 237.047 113.527C234.766 113.407 233.227 112.381 231.525 110.695C230.41 109.618 229.041 108.331 227.48 108.063C227.414 108.039 227.408 108.158 227.427 108.205C228.68 108.808 229.653 109.271 230.683 110.278C231.4 110.933 232.045 111.683 232.763 112.338C233.545 113.016 234.407 113.481 235.328 113.685C235.171 113.71 234.949 113.712 234.772 113.69C232.504 113.735 230.415 112.999 228.371 112.238C224.525 110.762 220.009 108.205 216.234 112.023L216.254 112.07C221.662 108.425 226.025 112.095 231.139 113.536C231.707 113.696 232.256 113.809 232.85 113.897C228.266 114.816 224.516 114.379 220.068 113.334C218.095 112.88 216.082 112.733 214.302 113.554C216.871 111 219.648 108.681 222.621 106.43C225.084 104.563 227.604 102.837 230.19 101.134C236.21 98.429 240.821 104.72 245.449 107.277C248.268 108.834 252.376 110 256.135 109.515C255.572 110.041 255.134 110.329 254.61 110.546ZM250.418 108.908C247.191 108.253 244.425 106.554 241.828 104.593C239.082 102.539 234.751 99.0814 231.035 100.748C231.866 100.196 232.717 99.6918 233.568 99.1872C236.216 98.7129 238.589 98.7849 240.826 100.418C242.34 101.515 243.401 103.136 245.275 103.756C245.34 103.779 245.393 103.637 245.328 103.614C243.147 102.524 241.775 100.149 239.561 99.2483C238.216 98.6938 236.824 98.5652 235.439 98.7202C241.033 96.4686 247.552 100.094 252.029 102.959C254.234 104.38 257.547 106.996 260.703 107.344C257.274 109.032 254.194 109.676 250.418 108.908ZM249.459 100.927C246.006 99.187 240.334 96.2624 236.1 98.0284C235.787 98.0786 235.427 98.153 235.113 98.2032C236.769 97.2182 238.445 96.2805 240.12 95.3425C247.214 94.424 253.624 97.6488 258.448 102.567C259.875 103.996 261.472 105.966 263.601 106.395C257.991 107.394 254.034 103.224 249.459 100.927ZM261.468 104.879C259.008 103.247 257.159 100.665 254.725 98.962C250.674 96.0456 245.881 94.4365 240.808 94.9813C242.346 94.1156 243.903 93.297 245.48 92.5256C245.5 92.5727 245.585 92.6427 245.676 92.5946C246.494 92.2796 247.39 92.1527 248.279 92.1443C248.762 92.2343 249.291 92.3003 249.821 92.366C252.427 93.0031 255.01 94.7987 256.483 96.6049C258.183 98.6926 259.268 101.448 262.083 101.918C262.214 101.964 262.228 101.727 262.143 101.657C258.48 100.085 257.19 95.889 253.869 93.7932C253.053 93.3045 252.173 92.7929 251.239 92.4235C252.5 92.5061 253.781 92.6357 254.937 93.0029C258.842 94.2186 262.116 96.7405 264.683 99.9783C266.403 102.113 268.11 104.082 270.887 104.458C270.952 104.481 270.998 104.457 271.063 104.48C267.558 105.175 264.867 107.163 261.468 104.879ZM277.855 101.484C277.809 101.508 277.809 101.508 277.855 101.484C274.179 102.843 271.571 105.302 267.898 102.761C265.38 100.988 263.826 97.9061 261.36 95.9913C257.577 93.0487 252.176 91.1854 247.221 91.6108C248.661 90.9115 250.101 90.2123 251.586 89.4889C251.907 89.3204 252.247 89.199 252.522 89.0545C252.522 89.0545 252.541 89.1017 252.587 89.0776C260.394 87.7267 266.159 92.8961 271.689 97.5004C273.998 99.4405 276.478 100.717 279.014 100.646C278.621 100.909 278.248 101.22 277.855 101.484ZM285.893 96.916C285.493 97.298 285.055 97.5859 284.616 97.8738C284.662 97.8497 284.688 97.7785 284.688 97.7785C284.878 97.5639 284.65 97.2825 284.46 97.497C281.303 100.246 278.412 101.077 274.92 99.2426C272.355 97.8959 270.217 95.6942 267.966 93.8954C263.759 90.6023 258.656 87.8379 253.065 88.8839C254.936 88.0151 256.808 87.1463 258.699 86.3246C264.939 84.4213 270.439 90.7043 275.412 93.4227C279.028 95.4213 283.077 96.4464 287.06 95.5575C286.68 95.9866 286.338 96.5099 285.893 96.916ZM296.491 90.3144C294.972 91.629 293.296 92.5669 291.575 93.5289C291.647 93.4336 291.589 93.2924 291.451 93.3646C287.729 94.7475 284.641 95.9116 280.826 95.0496C277.691 94.3467 274.793 92.6013 272.164 90.8297C268.849 88.6155 264.774 84.9666 260.413 85.4809C261.552 84.9973 262.625 84.4906 263.763 84.0071C263.802 84.1013 263.868 84.1242 263.959 84.0761C270.948 80.7474 276.341 90.4117 282.712 91.2494C282.823 91.2483 282.829 91.13 282.745 91.06C278.637 89.8934 275.879 87.2721 272.342 85.0601C270.306 83.7793 267.655 82.7644 265.157 83.3319C265.386 83.2115 265.635 83.1383 265.864 83.0179L265.929 83.0409C273.337 79.3772 281.203 85.8505 287.956 87.7482C291.496 88.7547 295.404 88.7647 299.021 87.6665C298.234 88.5958 297.448 89.5251 296.491 90.3144ZM313.903 77.6672C313.857 77.6912 313.857 77.6912 313.903 77.6672C311.2 79.0876 308.712 80.6242 305.737 81.3854C302.29 82.222 298.762 81.7827 295.424 81.129C289.231 79.9114 282.646 76.2628 276.032 78.4769C275.875 78.502 275.881 78.7856 276.084 78.7365C283.527 76.7745 290.64 80.8908 297.702 82.0529C300.871 82.5665 304.303 82.3683 307.534 81.4156C307.206 81.7024 306.944 82.0122 306.662 82.2749C306.544 82.3943 306.381 82.5377 306.263 82.6569C306.217 82.681 306.217 82.681 306.171 82.7051C305.798 83.016 305.405 83.2797 305.012 83.5435C302.559 84.4887 300.354 85.3608 297.727 85.0784C297.616 85.0795 297.609 85.1977 297.694 85.2678C299.039 85.8223 301.164 85.5657 303.021 84.9335C302.216 85.4139 301.457 85.8703 300.678 86.2796C300.705 86.2084 300.75 86.1843 300.777 86.1132C300.849 86.0179 300.725 85.8536 300.607 85.973C300.463 86.1635 300.253 86.3309 300.109 86.5214C298.375 87.318 296.524 87.8321 294.406 87.9704C290.595 88.1958 286.931 87.0252 283.55 85.5916C279.149 83.7187 273.569 80.7461 268.435 81.9532C272.427 80.1423 276.418 78.3313 280.371 76.4262C281.856 75.7029 283.388 74.9555 284.873 74.2321C284.893 74.2792 284.932 74.3733 285.023 74.3252C291.734 72.3465 297.567 76.3333 303.923 77.4075C307.641 78.034 311.949 77.6621 315.789 76.1598C315.153 76.7806 314.571 77.2589 313.903 77.6672ZM323.4 69.7522C323.328 69.8475 323.276 69.9897 323.203 70.085C321.355 72.0883 319.423 73.6195 317.25 74.7041C317.257 74.5858 317.153 74.4686 317.035 74.588C316.825 74.7555 316.662 74.8989 316.472 75.1134C315.104 75.7173 313.678 76.18 312.102 76.5496C308.035 77.3685 304.029 77.1229 300.208 75.9773C295.578 74.6267 290.565 72.2159 285.541 73.8239C287.805 72.6914 290.135 71.5817 292.399 70.4492C297.298 69.0788 301.212 72.0672 305.732 73.0171C305.798 73.0401 305.85 72.8978 305.785 72.8747C302.239 71.5846 297.834 69.0262 293.728 69.7509C294.094 69.5583 294.507 69.3416 294.893 69.1961C301.826 67.2153 308.671 71.3579 315.58 70.9376C317.698 70.7993 320.765 70.3918 323.486 69.4203C323.525 69.5146 323.472 69.657 323.4 69.7522ZM329.626 63.0976C329.233 63.7632 328.819 64.3818 328.406 65.0003C324.511 69.7416 317.764 70.8223 312.301 70.4251C306.949 70.027 301.655 67.477 296.195 68.5692C298.413 67.4607 300.632 66.3522 302.831 65.1966C309.089 63.7423 314.97 64.2063 321.265 64.0519C324.088 64.0014 327.227 63.4988 330.053 62.2426C329.857 62.5753 329.751 62.86 329.626 63.0976ZM335.439 57.0615C335.17 57.4896 334.882 57.8706 334.593 58.2515C332.17 60.2131 329.943 61.8417 326.941 62.674C324.031 63.4582 320.985 63.5108 318.031 63.5153C313.632 63.5335 308.797 63.0358 304.362 64.4492C304.454 64.401 304.545 64.3529 304.683 64.2806C308.288 62.6152 311.855 60.8556 315.422 59.0959C315.467 59.0718 315.487 59.1189 315.533 59.0949C320.328 57.2054 324.993 57.9647 329.869 57.7527C331.961 57.6855 334.126 57.1212 336.011 56.0159C335.814 56.3488 335.636 56.7287 335.439 57.0615ZM339.893 51.1093C339.453 51.799 338.955 52.3475 338.496 52.9901C338.469 53.0613 338.443 53.1325 338.443 53.1325C336.897 54.5183 335.338 55.7388 333.278 56.4203C331.217 57.1018 328.975 57.0759 326.91 57.0719C323.845 57.0775 320.806 57.0118 317.849 57.8201C319.885 56.8079 321.901 55.7486 323.936 54.7364C323.909 54.8076 324.014 54.9247 324.105 54.8766C324.936 54.7268 325.794 54.104 326.527 53.7189C326.756 53.5985 326.985 53.4781 327.233 53.4049C327.272 53.4991 327.338 53.522 327.449 53.521C331.59 51.8032 335.927 52.8493 340.011 50.9902C339.965 51.014 339.919 51.0381 339.893 51.1093ZM349.951 38.4848C348.96 40.2672 347.779 41.8623 346.768 43.5975C345.037 45.8833 343.247 48.0279 340.981 49.5623L340.936 49.5864C340.844 49.6346 340.798 49.6586 340.726 49.7539C339.757 50.3778 338.684 50.8844 337.507 51.2739C334.7 52.1752 331.728 51.7307 328.948 52.561C328.614 52.5642 328.281 52.5673 327.987 52.6646C331.148 51.0034 334.296 49.1769 337.151 47.0458C342.131 44.6581 348.322 41.6916 350.356 36.0934C350.409 35.951 350.213 35.882 350.141 35.9772C347.753 39.2386 345.544 41.7181 342.179 43.8304C341.119 44.5024 340.065 45.0561 338.966 45.6339C339.994 44.7495 341.003 43.818 341.927 42.8163C342.071 42.6258 341.863 42.3915 341.719 42.5819C339.255 44.851 336.655 46.7906 333.978 48.5418C334.404 48.0886 334.745 47.5652 335.106 47.089C336.955 44.6838 338.412 42.5424 341.108 41.2403C341.245 41.168 341.167 40.9797 341.056 40.9807C339.441 41.2561 338.15 42.4503 337.075 43.7608C335.449 45.762 334.111 47.7841 332.296 49.5979C330.659 50.6299 329.029 51.5438 327.334 52.4346C328.415 51.4078 329.268 50.0995 330.049 48.8865C331.906 45.9612 333.377 43.1814 336.284 41.3099C337.677 41.0366 339.096 40.6922 340.496 40.3006C344.878 39.0296 349.799 36.9026 352.378 32.6229L352.398 32.6701C352.41 32.8354 352.423 33.0008 352.39 33.1902C351.581 34.8761 350.943 36.7024 349.951 38.4848Z" fill="#BFAB25"/>
</g>
<defs>
<clipPath id="clip0_15_77">
<rect width="56.3238" height="202.967" fill="white" transform="matrix(0.307333 -0.951602 0.925192 0.379499 0 77.321)"/>
</clipPath>
<clipPath id="clip1_15_77">
<rect width="55.5009" height="206.471" fill="white" transform="matrix(0.455952 0.890004 -0.838192 0.545375 336.694 0)"/>
</clipPath>
</defs>
</svg>
